<svg xmlns="http://www.w3.org/2000/svg" xmlns:xlink="http://www.w3.org/1999/xlink" viewBox="0 0 100 100"><defs><style>.cls-1{fill:url(#linear-gradient);}.cls-2{fill:#713289;}.cls-3{fill:#422e72;}.cls-4{fill:#583185;}.cls-5{fill:url(#linear-gradient-2);}.cls-6{fill:url(#linear-gradient-3);}.cls-7{fill:url(#linear-gradient-4);}.cls-8{fill:url(#linear-gradient-5);}.cls-9{fill:url(#linear-gradient-6);}.cls-10{fill:url(#linear-gradient-7);}.cls-11{fill:url(#linear-gradient-8);}.cls-12{fill:url(#linear-gradient-9);}.cls-13{fill:url(#linear-gradient-10);}.cls-14{fill:url(#linear-gradient-11);}.cls-15{fill:url(#linear-gradient-12);}.cls-16{fill:url(#linear-gradient-13);}.cls-17{fill:url(#linear-gradient-14);}.cls-18{fill:url(#linear-gradient-15);}</style><linearGradient id="linear-gradient" x1="92.82" y1="74.13" x2="7.71" y2="25" gradientUnits="userSpaceOnUse"><stop offset="0" stop-color="#292760"/><stop offset="1" stop-color="#713289"/></linearGradient><linearGradient id="linear-gradient-2" x1="44.49" y1="12.37" x2="55.51" y2="12.37" gradientUnits="userSpaceOnUse"><stop offset="0" stop-color="#cb3a7c"/><stop offset="1" stop-color="#c8397c" stop-opacity="0.1"/></linearGradient><linearGradient id="linear-gradient-3" x1="55.51" y1="18.78" x2="66.53" y2="18.78" xlink:href="#linear-gradient-2"/><linearGradient id="linear-gradient-4" x1="66.52" y1="24.92" x2="77.53" y2="24.92" xlink:href="#linear-gradient-2"/><linearGradient id="linear-gradient-5" x1="44.45" y1="37.67" x2="55.46" y2="37.67" xlink:href="#linear-gradient-2"/><linearGradient id="linear-gradient-6" x1="33.47" y1="31.37" x2="44.49" y2="31.37" xlink:href="#linear-gradient-2"/><linearGradient id="linear-gradient-7" x1="13.37" y1="43.78" x2="21.6" y2="43.78" gradientTransform="translate(24.23 -2.88) rotate(30)" xlink:href="#linear-gradient-2"/><linearGradient id="linear-gradient-8" x1="35.2" y1="56.18" x2="43.44" y2="56.18" gradientTransform="translate(33.36 -12.13) rotate(30)" xlink:href="#linear-gradient-2"/><linearGradient id="linear-gradient-9" x1="67.91" y1="62.72" x2="76.14" y2="62.72" gradientTransform="translate(90.33 -31.01) rotate(60)" xlink:href="#linear-gradient-2"/><linearGradient id="linear-gradient-10" x1="78.85" y1="43.78" x2="87.08" y2="43.78" gradientTransform="translate(79.4 -49.96) rotate(60)" xlink:href="#linear-gradient-2"/><linearGradient id="linear-gradient-11" x1="56.9" y1="81.79" x2="65.13" y2="81.79" gradientTransform="translate(101.34 -11.95) rotate(60)" xlink:href="#linear-gradient-2"/><linearGradient id="linear-gradient-12" x1="24.15" y1="62.56" x2="32.39" y2="62.56" gradientTransform="translate(35.07 -5.75) rotate(30)" xlink:href="#linear-gradient-2"/><linearGradient id="linear-gradient-13" x1="13.1" y1="68.94" x2="21.34" y2="68.94" gradientTransform="translate(36.78 0.63) rotate(30)" xlink:href="#linear-gradient-2"/><linearGradient id="linear-gradient-14" x1="35.2" y1="81.61" x2="43.44" y2="81.61" gradientTransform="translate(46.07 -8.73) rotate(30)" xlink:href="#linear-gradient-2"/><linearGradient id="linear-gradient-15" x1="22.43" y1="24.92" x2="33.45" y2="24.92" xlink:href="#linear-gradient-2"/></defs><title>studio3_dice</title><g id="Layer_2" data-name="Layer 2"><path class="cls-1" d="M89,78,55.06,97.88a10,10,0,0,1-10.12,0L11.25,78.09a11.32,11.32,0,0,1-5.6-9.78V32.63a15.1,15.1,0,0,1,7.53-13.07L41.68,3a16.91,16.91,0,0,1,17,0L86.62,19.4a15.61,15.61,0,0,1,7.73,13.48V68.55A10.91,10.91,0,0,1,89,78Z"/><path class="cls-2" d="M86.42,27.85,54.69,45.06a9.85,9.85,0,0,1-9.38,0L13.49,27.83a3.46,3.46,0,0,1,0-6.1L44.31,5A11.94,11.94,0,0,1,55.68,5L86.42,21.71A3.5,3.5,0,0,1,86.42,27.85Z"/><path class="cls-3" d="M91.27,33.7,90.37,69a9,9,0,0,1-4,7.41L55.09,95.08c-1.92,1.14-4.27-.93-4.11-3.62l-.07-34.13c.23-3.94,2.06-7.31,4.88-9L87.14,30.05C89.07,28.91,91.43,31,91.27,33.7Z"/><path class="cls-4" d="M7.79,33.7,8.7,69a9,9,0,0,0,4,7.41L44,95.08c1.92,1.14,4.26-.93,4.11-3.62V57.38c-.23-3.94-2.07-7.32-4.88-9L11.93,30.05C10,28.91,7.64,31,7.79,33.7Z"/><ellipse class="cls-5" cx="50" cy="12.37" rx="5.51" ry="3.53"/><ellipse class="cls-6" cx="61.02" cy="18.78" rx="5.51" ry="3.53"/><ellipse class="cls-7" cx="72.03" cy="24.92" rx="5.51" ry="3.53"/><ellipse class="cls-8" cx="49.96" cy="37.67" rx="5.51" ry="3.53"/><ellipse class="cls-9" cx="38.98" cy="31.37" rx="5.51" ry="3.53"/><ellipse class="cls-10" cx="17.48" cy="43.78" rx="3.53" ry="5.51" transform="matrix(0.87, -0.5, 0.5, 0.87, -19.55, 14.61)"/><ellipse class="cls-11" cx="39.32" cy="56.18" rx="3.53" ry="5.51" transform="translate(-22.82 27.19) rotate(-30)"/><ellipse class="cls-12" cx="72.03" cy="62.72" rx="5.51" ry="3.53" transform="matrix(0.5, -0.87, 0.87, 0.5, -18.31, 93.74)"/><ellipse class="cls-13" cx="82.96" cy="43.78" rx="5.51" ry="3.53" transform="matrix(0.5, -0.87, 0.87, 0.5, 3.57, 93.74)"/><ellipse class="cls-14" cx="61.02" cy="81.79" rx="5.51" ry="3.53" transform="translate(-40.32 93.74) rotate(-60)"/><ellipse class="cls-15" cx="28.27" cy="62.56" rx="3.53" ry="5.51" transform="matrix(0.87, -0.5, 0.5, 0.87, -27.49, 22.52)"/><ellipse class="cls-16" cx="17.22" cy="68.94" rx="3.53" ry="5.51" transform="matrix(0.87, -0.5, 0.5, 0.87, -32.16, 17.85)"/><ellipse class="cls-17" cx="39.32" cy="81.61" rx="3.53" ry="5.51" transform="matrix(0.87, -0.5, 0.5, 0.87, -35.53, 30.59)"/><ellipse class="cls-18" cx="27.94" cy="24.92" rx="5.51" ry="3.53"/></g></svg>