<svg xmlns="http://www.w3.org/2000/svg" xmlns:xlink="http://www.w3.org/1999/xlink" viewBox="0 0 100 100"><defs><style>.cls-1{fill:url(#linear-gradient);}.cls-2{fill:#713289;}.cls-3{fill:#422e72;}.cls-4{fill:#583185;}.cls-5{fill:url(#linear-gradient-2);}.cls-6{fill:url(#linear-gradient-3);}.cls-7{fill:url(#linear-gradient-4);}.cls-8{fill:url(#linear-gradient-5);}.cls-9{fill:url(#linear-gradient-6);}.cls-10{fill:url(#linear-gradient-7);}.cls-11{fill:url(#linear-gradient-8);}.cls-12{fill:url(#linear-gradient-9);}.cls-13{fill:url(#linear-gradient-10);}.cls-14{fill:url(#linear-gradient-11);}.cls-15{fill:url(#linear-gradient-12);}.cls-16{fill:url(#linear-gradient-13);}.cls-17{fill:url(#linear-gradient-14);}.cls-18{fill:url(#linear-gradient-15);}.cls-19{fill:url(#linear-gradient-16);}</style><linearGradient id="linear-gradient" x1="92.82" y1="74.26" x2="7.71" y2="25.13" gradientUnits="userSpaceOnUse"><stop offset="0" stop-color="#292760"/><stop offset="1" stop-color="#713289"/></linearGradient><linearGradient id="linear-gradient-2" x1="44.49" y1="12.5" x2="55.51" y2="12.5" gradientUnits="userSpaceOnUse"><stop offset="0" stop-color="#cb3a7c"/><stop offset="1" stop-color="#c8397c" stop-opacity="0.1"/></linearGradient><linearGradient id="linear-gradient-3" x1="44.45" y1="23.94" x2="55.46" y2="23.94" xlink:href="#linear-gradient-2"/><linearGradient id="linear-gradient-4" x1="66.52" y1="25.05" x2="77.53" y2="25.05" xlink:href="#linear-gradient-2"/><linearGradient id="linear-gradient-5" x1="44.45" y1="37.8" x2="55.46" y2="37.8" xlink:href="#linear-gradient-2"/><linearGradient id="linear-gradient-6" x1="13.37" y1="43.91" x2="21.6" y2="43.91" gradientTransform="translate(24.3 -2.86) rotate(30)" xlink:href="#linear-gradient-2"/><linearGradient id="linear-gradient-7" x1="35.2" y1="56.31" x2="43.44" y2="56.31" gradientTransform="translate(33.42 -12.12) rotate(30)" xlink:href="#linear-gradient-2"/><linearGradient id="linear-gradient-8" x1="56.9" y1="54.66" x2="65.13" y2="54.66" gradientTransform="translate(77.85 -25.51) rotate(60)" xlink:href="#linear-gradient-2"/><linearGradient id="linear-gradient-9" x1="78.85" y1="69.07" x2="87.08" y2="69.07" gradientTransform="translate(101.3 -37.31) rotate(60)" xlink:href="#linear-gradient-2"/><linearGradient id="linear-gradient-10" x1="78.85" y1="43.91" x2="87.08" y2="43.91" gradientTransform="translate(79.51 -49.89) rotate(60)" xlink:href="#linear-gradient-2"/><linearGradient id="linear-gradient-11" x1="56.9" y1="81.92" x2="65.13" y2="81.92" gradientTransform="translate(101.45 -11.88) rotate(60)" xlink:href="#linear-gradient-2"/><linearGradient id="linear-gradient-12" x1="23.82" y1="50.13" x2="32.06" y2="50.13" gradientTransform="translate(28.81 -7.26) rotate(30)" xlink:href="#linear-gradient-2"/><linearGradient id="linear-gradient-13" x1="13.1" y1="69.07" x2="21.34" y2="69.07" gradientTransform="translate(36.84 0.64) rotate(30)" xlink:href="#linear-gradient-2"/><linearGradient id="linear-gradient-14" x1="24.13" y1="75.43" x2="32.36" y2="75.43" gradientTransform="translate(41.5 -4.02) rotate(30)" xlink:href="#linear-gradient-2"/><linearGradient id="linear-gradient-15" x1="35.2" y1="81.73" x2="43.44" y2="81.73" gradientTransform="translate(46.14 -8.71) rotate(30)" xlink:href="#linear-gradient-2"/><linearGradient id="linear-gradient-16" x1="22.43" y1="25.05" x2="33.45" y2="25.05" xlink:href="#linear-gradient-2"/></defs><title>studio3_dice</title><g id="Layer_2" data-name="Layer 2"><path class="cls-1" d="M89,78.1,55.06,98a10,10,0,0,1-10.12,0L11.25,78.22a11.33,11.33,0,0,1-5.6-9.78V32.76a15.1,15.1,0,0,1,7.53-13.07L41.68,3.16a16.94,16.94,0,0,1,17,0l27.9,16.34A15.61,15.61,0,0,1,94.35,33V68.68A10.91,10.91,0,0,1,89,78.1Z"/><path class="cls-2" d="M86.42,28,54.69,45.19a9.85,9.85,0,0,1-9.38,0L13.49,28a3.46,3.46,0,0,1,0-6.1L44.31,5.16a11.91,11.91,0,0,1,11.37,0L86.42,21.84A3.5,3.5,0,0,1,86.42,28Z"/><path class="cls-3" d="M91.27,33.82l-.9,35.27a9,9,0,0,1-4,7.4L55.09,95.21c-1.92,1.13-4.27-.93-4.11-3.62l-.07-34.13c.23-3.94,2.06-7.31,4.88-9L87.14,30.17C89.07,29,91.43,31.11,91.27,33.82Z"/><path class="cls-4" d="M7.79,33.82,8.7,69.09a9,9,0,0,0,4,7.4L44,95.21c1.92,1.13,4.26-.93,4.11-3.62V57.51c-.23-3.94-2.07-7.32-4.88-9L11.93,30.17C10,29,7.64,31.11,7.79,33.82Z"/><ellipse class="cls-5" cx="50" cy="12.5" rx="5.51" ry="3.53"/><ellipse class="cls-6" cx="49.96" cy="23.94" rx="5.51" ry="3.53"/><ellipse class="cls-7" cx="72.03" cy="25.05" rx="5.51" ry="3.53"/><ellipse class="cls-8" cx="49.96" cy="37.8" rx="5.51" ry="3.53"/><ellipse class="cls-9" cx="17.48" cy="43.91" rx="3.53" ry="5.51" transform="translate(-19.61 14.62) rotate(-30)"/><ellipse class="cls-10" cx="39.32" cy="56.31" rx="3.53" ry="5.51" transform="translate(-22.89 27.2) rotate(-30)"/><ellipse class="cls-11" cx="61.02" cy="54.66" rx="5.51" ry="3.53" transform="translate(-16.83 80.17) rotate(-60)"/><ellipse class="cls-12" cx="82.96" cy="69.07" rx="5.51" ry="3.53" transform="translate(-18.34 106.38) rotate(-60)"/><ellipse class="cls-13" cx="82.96" cy="43.91" rx="5.51" ry="3.53" transform="matrix(0.5, -0.87, 0.87, 0.5, 3.46, 93.8)"/><ellipse class="cls-14" cx="61.02" cy="81.92" rx="5.51" ry="3.53" transform="matrix(0.5, -0.87, 0.87, 0.5, -40.43, 93.8)"/><ellipse class="cls-15" cx="27.94" cy="50.13" rx="3.53" ry="5.51" transform="translate(-21.32 20.69) rotate(-30)"/><ellipse class="cls-16" cx="17.22" cy="69.07" rx="3.53" ry="5.51" transform="translate(-32.23 17.86) rotate(-30)"/><ellipse class="cls-17" cx="28.25" cy="75.43" rx="3.53" ry="5.51" transform="translate(-33.93 24.23) rotate(-30)"/><ellipse class="cls-18" cx="39.32" cy="81.73" rx="3.53" ry="5.51" transform="matrix(0.87, -0.5, 0.5, 0.87, -35.6, 30.61)"/><ellipse class="cls-19" cx="27.94" cy="25.05" rx="5.51" ry="3.53"/></g></svg>