<svg xmlns="http://www.w3.org/2000/svg" viewBox="0 0 300 300"><defs><style>.cls-1{opacity:0.34;}.cls-2{fill:#00a79d;}.cls-3{fill:#39b54a;}.cls-4{fill:#58595b;}</style></defs><title>studio2_illu</title><g id="outline"><g class="cls-1"><path class="cls-2" d="M120,101.39c2.94,9.72,5.69,19.55,9.41,29,1.05,2.67,2.17,5.31,3.41,7.91a1.36,1.36,0,0,0,1.84.48,1.38,1.38,0,0,0,.48-1.85c-4.24-8.94-7.15-18.43-10-27.89-.85-2.79-1.69-5.59-2.53-8.38-.5-1.66-3.11-1-2.61.72Z"/></g><g class="cls-1"><path class="cls-2" d="M173.06,228.15c-.12,6.55,3.3,12.47,5.73,18.36a183.89,183.89,0,0,1,6.64,18.8q1.59,5.4,2.84,10.89c.39,1.69,3,1,2.6-.72a188.2,188.2,0,0,0-5.4-18.93q-1.62-4.71-3.49-9.34c-1.2-3-2.53-5.86-3.76-8.8a25.47,25.47,0,0,1-2.46-10.26,1.35,1.35,0,0,0-2.7,0Z"/></g><g class="cls-1"><path class="cls-2" d="M99.69,29.1a68.21,68.21,0,0,1,2.66,29.7c-.1.72.69,1.35,1.35,1.35a1.39,1.39,0,0,0,1.35-1.35,70,70,0,0,0-2.76-30.42c-.53-1.64-3.14-.94-2.6.72Z"/></g><g class="cls-1"><path class="cls-3" d="M102.11,65.59l.13,11.86a5.42,5.42,0,0,0,3.31,4.93,5.17,5.17,0,0,0,2.8.37,5,5,0,0,0,3.1-1.49l4.39-5.42-9-2.38c.07.42.14.84.19,1.26l-.19-1.43a30.8,30.8,0,0,1,0,7.91l.2-1.43q-.18,1.28-.45,2.52a5.41,5.41,0,0,0,9.87,4.16l5-7.92-10.05-2.72.07,7.42c0,3.25-.47,7.08,2,9.6a6.51,6.51,0,0,0,3.14,1.73,9.47,9.47,0,0,0,3.86-.06c1.2-.19,2.39-.42,3.58-.67,2.37-.49,4.72-1.09,7.05-1.78a5.67,5.67,0,0,0,3.22-2.48,5.39,5.39,0,0,0-6.09-7.93,80.68,80.68,0,0,1-10.82,2.48l1.43-.19a4.18,4.18,0,0,1-.79,0l1.43.19a1.63,1.63,0,0,1-.37-.08l1.29.54a1,1,0,0,1-.32-.19l1.09.84-.13-.13.84,1.09a1.29,1.29,0,0,1-.19-.32l.55,1.29a2.7,2.7,0,0,1-.14-.56l.2,1.43c-.18-2-.07-4-.09-6l-.06-6.23a5.47,5.47,0,0,0-4-5.2,5.6,5.6,0,0,0-6.1,2.47l-5,7.92L117,85.16a37.6,37.6,0,0,0,.24-14.57,5.39,5.39,0,0,0-9-2.38l-4.39,5.42L113,77.45l-.13-11.86a5.63,5.63,0,0,0-1.58-3.82,5.4,5.4,0,0,0-9.21,3.82Z"/></g><g class="cls-1"><path class="cls-3" d="M139.64,150.78l1.4,12.6a5.77,5.77,0,0,0,1.58,3.82,5.5,5.5,0,0,0,3.1,1.48,5.12,5.12,0,0,0,3.44-.64,6.18,6.18,0,0,0,2.48-3.22l2.94-7.58H144.17a45.2,45.2,0,0,1,1.63,7.36l-.19-1.43a44.35,44.35,0,0,1,.18,10A14.69,14.69,0,0,0,146,178a7.59,7.59,0,0,0,5.26,5.58,5.23,5.23,0,0,0,3.51-.27,5.94,5.94,0,0,0,2.58-2.21l2.73-3.6-9.86-1.29c.8,4.53,1.51,9.06,2.12,13.62l-.19-1.44q.52,3.94,1,7.89a6.66,6.66,0,0,0,.74,2.73,5.47,5.47,0,0,0,8.47,1.09l3.52-3.46-9-2.38,4.69,13.94a5.43,5.43,0,0,0,9.86,1.29l6.77-10.8L168,196,169.39,221a5.72,5.72,0,0,0,1.58,3.82,5.4,5.4,0,0,0,7.63,0,5.37,5.37,0,0,0,1.58-3.82L178.83,196a5.39,5.39,0,0,0-10.05-2.72L162,204.06l9.86,1.29-4.68-13.94a5.55,5.55,0,0,0-3.77-3.77,5.42,5.42,0,0,0-5.25,1.39l-3.52,3.46,9.21,3.81q-1.26-11.51-3.28-22.94l-.54-1.29L159.2,171a5.31,5.31,0,0,0-3.1-1.48,5.07,5.07,0,0,0-2.8.37,6,6,0,0,0-2.58,2.2L148,175.68l6.1-2.48-.3-.1,1.29.54a2.85,2.85,0,0,1-.37-.23l1.09.85a2.2,2.2,0,0,1-.3-.31l.84,1.09a2.55,2.55,0,0,1-.3-.5l.54,1.28a5.07,5.07,0,0,1-.29-1.08l.2,1.43a24.8,24.8,0,0,1,.21-4.47,44.22,44.22,0,0,0,0-5.4,50.38,50.38,0,0,0-2.12-11.93,5.5,5.5,0,0,0-5.21-4,6.36,6.36,0,0,0-2.72.74,5.7,5.7,0,0,0-2.48,3.22L141.23,162l10.6,1.43-1.4-12.6a5.86,5.86,0,0,0-1.58-3.81,5.4,5.4,0,0,0-7.63,0,5.17,5.17,0,0,0-1.58,3.81Z"/></g><g class="cls-1"><path class="cls-2" d="M168.16,231l.16,14.18c.09,8.25,10.77,10.73,15.08,4.09l3.89-6-14.79-1.93q1.27,7.22,2.3,14.47c.56,4,5.35,6.27,8.88,5.8,4.27-.57,6.56-3.88,7-8-.11,1-.29,2.11-1.44,2.45L179,248.31A106.1,106.1,0,0,0,180.09,271c.45,3.1,3.93,5.42,6.73,5.8a8.25,8.25,0,0,0,8.06-3.87c1.58-2.28,3.19-4.54,4.89-6.73l-12.71-1.64c-.4-.78-.14-1.1-.17,0,0,.87,0,1.76,0,2.63a17.1,17.1,0,0,0,1.29,6.6c1.93,4.59,6,7.78,11.08,7.77,4.24,0,8.29-3.72,8.1-8.09a8.24,8.24,0,0,0-8.1-8.09,4.49,4.49,0,0,1,3.89,2.5c-.44-.74,0-.66-.06.18,0-.73,0-1.46,0-2.19a19.07,19.07,0,0,0-2-9.48c-2.2-4.22-9.56-5.69-12.72-1.64-2.55,3.28-5,6.6-7.41,10l14.79,1.94a90.82,90.82,0,0,1-.5-18.36c.36-5.24-5.46-9.21-10.24-7.8-6.32,1.86-9.73,6.83-10.45,13.16l15.9-2.15q-1-7.26-2.3-14.48c-.55-3.1-3.85-5.41-6.73-5.79a8.16,8.16,0,0,0-8.06,3.86l-3.9,6,15.08,4.08L184.35,231c0-4.23-3.69-8.29-8.1-8.1a8.23,8.23,0,0,0-8.09,8.1Z"/></g><g class="cls-1"><path class="cls-2" d="M115.73,102.08a73,73,0,0,0,5.56,17.09c2.43,5.36,11.5,5.23,14,0a34.7,34.7,0,0,1,3.5-5.82l-15.08-4.09.2,14.28c.07,5,5.16,9.57,10.25,7.8a22.58,22.58,0,0,0,8.26-4.9l-13.53-3.58a33.68,33.68,0,0,1,1.38,13.63c-.58,7.08,9.21,10.57,13.82,5.72l2.28-2.39-13.52-3.58L134,140.1a8.25,8.25,0,0,0,10,5.65,8.17,8.17,0,0,0,5.65-9.95l-1.19-3.86c-1.76-5.65-9.2-8.12-13.53-3.57l-2.29,2.4,13.82,5.72a48.35,48.35,0,0,0-2-17.93A8.18,8.18,0,0,0,131,115c-1,.92.15,0-.55.42-.27.16-1.76.73-.58.32l10.25,7.81-.21-14.28c0-3.43-2.46-7-5.94-7.8-3.78-.87-6.9.7-9.14,3.71a34.46,34.46,0,0,0-3.49,5.83h14a59.3,59.3,0,0,1-3.92-13.23c-.78-4.3-6-6.74-10-5.65-4.52,1.24-6.44,5.64-5.65,10Z"/></g><g class="cls-1"><path class="cls-2" d="M103.25,61A16.05,16.05,0,0,0,113.54,58a5.4,5.4,0,0,0,0-9.32,6.28,6.28,0,0,0-2.45-1.08,9.11,9.11,0,0,0-2.76-.23c-1.51.14-3,.49-4.44.71l1.44-.19a6,6,0,0,1-1.47,0l1.43.19a3,3,0,0,1-.65-.18l1.29.55a2.82,2.82,0,0,1-.48-.27l1.09.84a3.16,3.16,0,0,1-.42-.4l.84,1.09a3.3,3.3,0,0,1-.31-.51l.54,1.29a4.38,4.38,0,0,1-.23-.88l.19,1.44c-.15-1.37.25-2.73.15-4.1a7.82,7.82,0,0,0-3.6-6.53c-.41-.29-.87-.51-1.26-.81l1.09.84a3.15,3.15,0,0,1-.36-.37l.84,1.09a2.43,2.43,0,0,1-.31-.54l.54,1.28a3.17,3.17,0,0,1-.12-.44l.19,1.43a3.47,3.47,0,0,1,0-.79l-.19,1.44a5.05,5.05,0,0,1,.33-1.15l-.54,1.29a7.43,7.43,0,0,1,.89-1.45L104,43.4a8.81,8.81,0,0,1,1.5-1.49l-1.09.84c.78-.58,1.59-1.11,2.33-1.75a7.87,7.87,0,0,0,2.2-3.43c.69-2,.25-4.25-.19-6.28a29.3,29.3,0,0,0-3.46-8.64A5.59,5.59,0,0,0,102,20.17a5.39,5.39,0,0,0-6.09,7.92,25.71,25.71,0,0,1,1.52,3l-.54-1.29a24.94,24.94,0,0,1,1.68,6l-.19-1.43a5.25,5.25,0,0,1,0,1.12l.2-1.43a3.75,3.75,0,0,1-.16.64L99,33.41a3.07,3.07,0,0,1-.31.53l.84-1.09a5.11,5.11,0,0,1-.75.72l1.09-.84a20,20,0,0,0-3.34,2.74A13,13,0,0,0,93.88,40a8.15,8.15,0,0,0,.5,6.13c.83,1.75,2.37,2.61,3.87,3.67L97.16,49a2.1,2.1,0,0,1,.37.36l-.84-1.1a3.21,3.21,0,0,1,.31.5l-.54-1.29a3.62,3.62,0,0,1,.22.86l-.19-1.43a28.47,28.47,0,0,1-.17,3.45,8.44,8.44,0,0,0,2.43,6.27,8.08,8.08,0,0,0,6.12,2.17c1.56-.12,3-.51,4.58-.73l-1.43.2a5.38,5.38,0,0,1,1.5,0l-1.44-.2a3.37,3.37,0,0,1,.69.19l-1.29-.54a2.92,2.92,0,0,1,.61.37V48.71a11.39,11.39,0,0,1-2.32,1.34l1.29-.54a12.55,12.55,0,0,1-3,.82l1.43-.2a11.86,11.86,0,0,1-2.23.06,5.4,5.4,0,0,0-3.82,9.21A6,6,0,0,0,103.25,61Z"/></g><path class="cls-4" d="M103.9,67.49c-.6-2.59,1.11-4.58,3.28-5.73a9.88,9.88,0,0,1,3.47-1.08,5.28,5.28,0,0,1,2.83.32c.45.24.42.27.67.76.07.15.14.3.2.45.22.48.42,1,.63,1.45.32.73.63,1.47.94,2.2.09.21.18.42.26.63s-.1-.25,0,.1l.15.35c.22.52.44,1,.65,1.54l3.24,7.74q4.53,10.88,9,21.77l11.64,28.15L154,157.88q6.71,16.26,13.4,32.51l12.64,30.7q5.43,13.17,10.84,26.34,3.89,9.46,7.79,18.93c1.23,3,2.35,6.08,3.71,9,.06.12.1.26.16.39l.13-1c-1,2.24-3.41,3.58-5.66,4.28s-5.09,1-7.17-.47l.62.81-2-4.77q-2.68-6.54-5.36-13.06-4-9.79-8-19.58l-10-24.45q-5.61-13.67-11.21-27.34-5.85-14.28-11.69-28.57l-11.51-28.14q-5.25-12.85-10.49-25.71-4.41-10.81-8.81-21.64Q108.2,78.18,105,70.24l-1.1-2.75c-.63-1.59-3.25-.9-2.6.72,2.28,5.72,4.6,11.42,6.91,17.13q5.12,12.6,10.26,25.2,6.21,15.25,12.46,30.52,6.76,16.58,13.56,33.16,6.69,16.34,13.39,32.68,6.1,14.92,12.23,29.85l9.81,23.9,6.27,15.28,1.44,3.53c.09.2.16.4.25.6,1,2.23,5,2.39,7,2.15a14.14,14.14,0,0,0,8.86-4.2c.7-.79,1.69-2,1.34-3.1-.25-.77-.63-1.52-.93-2.26l-4.9-11.91-8.14-19.8q-5.26-12.76-10.51-25.53l-12-29.07-12.53-30.41-12.24-29.65q-5.47-13.26-11-26.5-4.4-10.64-8.82-21.26-2.92-7-5.89-14.08c-.49-1.16-1-2.33-1.49-3.48-1.14-2.59-3.77-3.27-6.46-2.94-5,.64-10.27,4.56-9,10.19.39,1.69,3,1,2.6-.72Z"/><path class="cls-4" d="M116.55,60.57l-5.61-14.28-8.87-22.62L100,18.44a1.38,1.38,0,0,0-1.48-1,1.35,1.35,0,0,0-1.16,1.33l.19,8L97.89,40c0,1.77.09,3.53.12,5.29l.23,12.68c0,1.37,0,2.75.08,4.12a2.6,2.6,0,0,0,.5,1.37l1.74,2.71.4.62c.94,1.46,3.27.11,2.33-1.36l-2.46-3.83.19.69L100.69,44c-.1-5.7-.28-11.39-.42-17.09l-.21-8.12-2.65.36L103,33.44l8.87,22.62,2,5.23a1.39,1.39,0,0,0,1.66.94,1.36,1.36,0,0,0,1-1.66Z"/><path class="cls-4" d="M116.82,99.21a12,12,0,0,1,12.09-3.67,1.35,1.35,0,0,0,.72-2.6,14.63,14.63,0,0,0-14.72,4.37,1.37,1.37,0,0,0,0,1.9,1.35,1.35,0,0,0,1.91,0Z"/><path class="cls-4" d="M137.34,151.24a65.57,65.57,0,0,1,12.83-4.07,1.35,1.35,0,1,0-.71-2.6A68.59,68.59,0,0,0,136,148.91a1.35,1.35,0,0,0,1.36,2.33Z"/><path class="cls-4" d="M167.22,223.85A17.51,17.51,0,0,0,180,218.29c1.17-1.28-.73-3.19-1.91-1.91a14.79,14.79,0,0,1-10.9,4.77,1.35,1.35,0,0,0,0,2.7Z"/></g></svg>