<svg xmlns="http://www.w3.org/2000/svg" viewBox="0 0 300 300"><defs><style>.cls-1{opacity:0.34;}.cls-2{fill:#00a79d;}.cls-3{fill:#39b54a;}.cls-4{fill:#58595b;}</style></defs><title>studio2_illu</title><g id="outline"><g class="cls-1"><path class="cls-2" d="M118.9,101a55.48,55.48,0,0,0-9.38,6.18c-2.64,2.11-5.6,4.61-7.28,7.6-4.76,8.43,5.51,22.53,15,18.7a12.31,12.31,0,0,0,3.32-2.11c2-1.73-1.17.65.89-.68,1.17-.75-.23,0,.54-.3s1.25-.42,1.88-.61a60.1,60.1,0,0,0,9.59-3.15c4.75-2.26,7.63-7,5.94-12.2-1.21-3.79-3.76-7.45-5.63-11-2.05-3.85-7.4-5-11.07-2.9a8.22,8.22,0,0,0-2.9,11.07c1.3,2.45,3.57,5.88,4.29,8v-4.31l-.16.6,2.09-3.57c.9-.52.89-.53,0,0l-.71.35c1.34-.58-1,.25-1.06.26-1.54.46-3.12.81-4.66,1.25A31,31,0,0,0,114,116.3a16.47,16.47,0,0,0-1.65,1c-.67.48-1.32,1-2,1.49s-.8.68-.32.25l4.08-1.1-.78.07,4.09,1.11c1.15.57.79.95,0-.3a10.51,10.51,0,0,1-.62-1.14c.26.68.28.58.07-.3v4.3c-.1.63-2.27,2.72-.69,1.23.56-.52,1.07-1.1,1.63-1.63a36.58,36.58,0,0,1,3.11-2.71c-.57.43.54-.35.58-.37.51-.34,1-.69,1.53-1,1.29-.82,2.63-1.56,4-2.25,3.89-2,5-7.46,2.9-11.08-2.31-3.95-7.16-4.9-11.07-2.9Z"/></g><g class="cls-1"><path class="cls-2" d="M136.22,132.86,125,158.6,140,162.69A51.28,51.28,0,0,1,141.89,150L126,147.86a177,177,0,0,0,2.35,26.2c.5,3.1,3.89,5.41,6.73,5.8a8,8,0,0,0,8.06-3.87l11-20.51L139,151.39a32.19,32.19,0,0,1-.23,4.17c.22-1.77-.11.44-.18.81-.14.77-.3,1.54-.47,2.3-.74,3.36-1.69,6.66-2.61,10-1.8,6.47-3.67,13.17-3.62,19.94.07,8.91,13.85,11.27,15.9,2.15a60.07,60.07,0,0,1,2.86-8.85c.29-.74.59-1.47.89-2.21s.42-1,.13-.32l.48-1.13c.71-1.66,1.42-3.31,2.12-5,2.94-6.95,5.69-13.78,6.49-21.34H144.56a307.28,307.28,0,0,0-.49,36.67c.19,4.22,3.58,8.29,8.09,8.09a8.25,8.25,0,0,0,8.09-8.09q.63-23.21.31-46.4l-13.82,5.72c1.47,1.39-.41-.25-.1-.52,0,0,.62,2.07.65,2.17.5,1.85,1,3.7,1.45,5.55l2.81,10.74,5.68,21.71c1.67,6.37,11.72,8.34,14.8,1.94,3.84-8,8.31-15.65,9.57-24.58.59-4.17-1-8.9-5.65-9.95-3.88-.89-9.25,1.18-10,5.65L164,173l15.9,2.15.09-17.55-15.08,4.09,7.71,12.76c2.51,4.15,9.26,5.73,12.72,1.64,6-7.16-.41-14.36-5.08-20-1.95-2.35-3.93-4.67-5.85-7.05-1.12-1.38.9,1.31-.25-.34-.33-.48-.68-.95-1-1.44-.18-.29-.42-1.06-.69-1.23,0,0,.76,2.06.56,1.26a8.64,8.64,0,0,1-2,6.81c2.82-3.34,3.27-8.17,0-11.44-2.89-2.9-8.61-3.36-11.45,0-6,7.16.41,14.35,5.07,20,1.95,2.36,3.94,4.68,5.86,7.06,1.12,1.38-.9-1.31.25.34.33.48.68,1,1,1.44.18.29.42,1.06.69,1.23,0,0-.76-2.06-.56-1.26a8.62,8.62,0,0,1,2-6.81l12.71,1.63-7.71-12.76c-4.14-6.85-15-4-15.08,4.08l-.09,17.55a8.08,8.08,0,0,0,7,7.95c3.61.49,8.25-1.81,8.88-5.79l2-12.36L166,160.61a42.72,42.72,0,0,1-1.31,6.22c-.24.8-.51,1.59-.79,2.38q-.28.76-.6,1.53c.24-.56.24-.58,0-.06-1.64,3.6-3.54,7.07-5.25,10.64l14.79,1.93-6.15-23.53-3-11.4c-1.12-4.31-2.14-8.69-5.51-11.87-5-4.69-13.92-1.48-13.82,5.73q.33,23.19-.3,46.4h16.18a309.39,309.39,0,0,1,.5-36.67c.31-4.24-3.95-8.28-8.1-8.1-4.76.22-7.61,3.57-8.09,8.1-.19,1.84.35-1.27-.09.45-.2.8-.35,1.61-.56,2.4-.38,1.46-.84,2.9-1.33,4.32-.57,1.64-1.2,3.27-1.85,4.88-.31.76-.62,1.53-.94,2.29.5-1.21-.44,1-.48,1.13-2.65,6.2-5.66,12.44-7.14,19.05l15.9,2.15a32.28,32.28,0,0,1,.23-4.17c-.22,1.77.11-.44.18-.81.14-.77.3-1.54.47-2.3.74-3.36,1.69-6.66,2.61-10,1.8-6.47,3.67-13.17,3.62-19.94-.06-7.79-11.22-11.32-15.08-4.08l-10.94,20.51L144,169.75a149,149,0,0,1-1.77-21.89c-.1-9-13.53-11.11-15.9-2.15a74.82,74.82,0,0,0-2.43,17,8.18,8.18,0,0,0,5.94,7.8c3.22.73,7.68-.39,9.14-3.72L150.2,141c1.75-4,1.17-8.69-2.9-11.07-3.44-2-9.32-1.13-11.08,2.9Z"/></g><g class="cls-1"><path class="cls-3" d="M130.06,125.48a20.39,20.39,0,0,0-2.91,1.38,21,21,0,0,0-2.63,2,19.71,19.71,0,0,0-3.43,4.08,24.6,24.6,0,0,0-3.54,9.55,83.67,83.67,0,0,0-.89,11.29c-.08,3.54-.07,7.08.13,10.61a77.85,77.85,0,0,0,3.66,20.7,54.93,54.93,0,0,0,9.64,17.55,34.78,34.78,0,0,0,3.49,3.69,9.7,9.7,0,0,0,4.08,2.41,8.58,8.58,0,0,0,5.88-.79c1.65-.76,3.11-2,4.69-2.87a50,50,0,0,1,5-2.49l-1.29.55c4.91-2.05,10.13-3,15.19-4.61,5.45-1.7,10.7-4.23,14.56-8.56,2-2.23,3.67-4.71,5.49-7.07l-.85,1.09a25,25,0,0,1,4.21-4.45l-1.09.85a13.53,13.53,0,0,1,2.84-1.68l-1.29.55c1.32-.55,2.72-.84,4.05-1.37a13.79,13.79,0,0,0,2.73-1.33,11.11,11.11,0,0,0,3.06-3.09,8.47,8.47,0,0,0,1.1-6.89c-.64-2.16-2.19-3.74-3.71-5.32l-13.64-14.1c-4.31-4.44-8.8-8.85-14.18-12s-11.65-5.13-17.66-7.07c-7-2.25-14.48-4.32-21.91-3.49l1.44,10.6.26,0-1.43.2q13.34-1.8,26.8-2.47l-2.73-10.05a7.15,7.15,0,0,0-3.6,6.55,8.5,8.5,0,0,0,3.26,6.34,10.13,10.13,0,0,0,6.75,1.9,22.94,22.94,0,0,1,4.14-.14l-1.43-.19a5.54,5.54,0,0,1,1.27.34l-1.29-.54a4.22,4.22,0,0,1,.79.47l-1.09-.85a3.66,3.66,0,0,1,.51.53l-.84-1.09a4.11,4.11,0,0,1,.43.73l-.55-1.29a4.17,4.17,0,0,1,.26,1l-.19-1.43a16,16,0,0,1-.1,3.38,10.93,10.93,0,0,0,.49,4.65,10,10,0,0,0,4.19,5.15,29.93,29.93,0,0,0,4.17,1.86l-1.29-.55a9.66,9.66,0,0,1,2.16,1.19l-1.09-.84a5.91,5.91,0,0,1,.93.94l-.84-1.09a8.09,8.09,0,0,1,1,1.79l-.54-1.28a40.41,40.41,0,0,1,1.4,5.32,28,28,0,0,0,2.82,6.92,30.44,30.44,0,0,0,4.42,5.75c1.3,1.35,2.66,2.64,3.83,4.12l-.85-1.09a11.52,11.52,0,0,1,1.56,2.58l-.54-1.29a8.38,8.38,0,0,1,.49,1.78l-.2-1.44a7.15,7.15,0,0,1,0,1.73l.2-1.43a8.34,8.34,0,0,1-.48,1.69l.54-1.29a8.57,8.57,0,0,1-1,1.7l.84-1.1a10.51,10.51,0,0,1-1.86,1.85l1.09-.84a13.79,13.79,0,0,1-3,1.7l1.29-.54c-2.91,1.2-6,1.75-9,2.8a51.94,51.94,0,0,0-8.81,4,49.46,49.46,0,0,0-13.71,11.81,56.77,56.77,0,0,0-3.49,4.82c-.8,1.28-1.49,2.63-2.4,3.84l.85-1.09a7.67,7.67,0,0,1-1.28,1.33l1.1-.85a5,5,0,0,1-.89.54l1.29-.54a3.78,3.78,0,0,1-.81.24l1.44-.19a3.79,3.79,0,0,1-.89,0l1.43.19a4.5,4.5,0,0,1-.87-.24l1.29.55a6.68,6.68,0,0,1-.93-.55l1.09.84a28.54,28.54,0,0,1-2.51-2.53,12.73,12.73,0,0,0-3.92-2.78,15.61,15.61,0,0,0-5.82-1.42,12.39,12.39,0,0,0-4.94.8l6.83,5.2a9,9,0,0,1,0-1.64l-.2,1.43a9,9,0,0,1,.54-2l-.54,1.28.09-.21-9.86-4.16q-.15.42-.33.84l.55-1.29a15.47,15.47,0,0,1-1.8,3.1l.84-1.1a16,16,0,0,1-1.66,1.83l9,2.38-.3-2.1.2,1.44a127.64,127.64,0,0,1-.94-24,5.47,5.47,0,0,0-6.83-5.2,20.6,20.6,0,0,0-8.8,6l9,2.38a141.18,141.18,0,0,1-3.89-17.47l.19,1.43a50.85,50.85,0,0,1-.14-13.33l-.2,1.43a35.84,35.84,0,0,1,2.36-8.88l-.55,1.29a28.84,28.84,0,0,1,3.29-5.83,5.4,5.4,0,0,0-6.1-7.93l-1.29.54a5.44,5.44,0,0,0-1.93,1.94c-4,5.41-5.81,12-6.51,18.56s.21,13.49,1.6,20c.79,3.73,1.78,7.41,2.77,11.09a5.41,5.41,0,0,0,3.76,3.77,5.31,5.31,0,0,0,5.25-1.39A16.15,16.15,0,0,1,128.4,185l-1.09.85a15.43,15.43,0,0,1,3.35-2l-1.29.55.6-.24L123.14,179a134.33,134.33,0,0,0,1.43,27.54,5.27,5.27,0,0,0,3.77,3.76,5.5,5.5,0,0,0,5.25-1.38,20.39,20.39,0,0,0,5.17-8.14,5.37,5.37,0,0,0-.54-4.16,5.66,5.66,0,0,0-2.58-2.21,5.18,5.18,0,0,0-3.51-.27,5.26,5.26,0,0,0-3.23,2.48,13.81,13.81,0,0,0-1.39,6.62,5.5,5.5,0,0,0,2.12,4.24,5.09,5.09,0,0,0,4.71,1,9.63,9.63,0,0,1,1.91-.52l-1.43.2a9.48,9.48,0,0,1,2.38,0l-1.43-.19a9.77,9.77,0,0,1,2.3.61l-1.29-.54a9.37,9.37,0,0,1,1.89,1.09l-1.09-.85a17.59,17.59,0,0,1,1.94,1.92,14.79,14.79,0,0,0,2.9,2.51,8.66,8.66,0,0,0,9.39-.1,17.3,17.3,0,0,0,4.89-5.79,44.6,44.6,0,0,1,3.24-4.82l-.84,1.09a45.77,45.77,0,0,1,8.06-8l-1.09.84a46.26,46.26,0,0,1,10-5.85l-1.29.55a61.81,61.81,0,0,1,7.6-2.47,39,39,0,0,0,5.12-1.82,17.94,17.94,0,0,0,4.24-2.7,13,13,0,0,0,4.75-9.45c.15-3.63-1.62-6.75-3.8-9.47-1.75-2.18-3.94-4-5.66-6.19l.85,1.09a22.87,22.87,0,0,1-2.83-4.85l.54,1.29c-1.24-3-1.5-6.22-2.75-9.18a11,11,0,0,0-1.17-2.29,12.71,12.71,0,0,0-3.12-3.13,21.59,21.59,0,0,0-4.64-2.17l1.29.54a9.8,9.8,0,0,1-2-1.05l1.1.84a4.55,4.55,0,0,1-.83-.81l.84,1.09a5.08,5.08,0,0,1-.44-.75l.55,1.29a4.75,4.75,0,0,1-.32-1.19l.19,1.44a26.44,26.44,0,0,1,.15-4.17,9.69,9.69,0,0,0-2.44-7,9.89,9.89,0,0,0-7-2.85c-1.65-.07-3.28.35-4.94.16l1.44.2a5.68,5.68,0,0,1-1.27-.34l1.29.55a4.18,4.18,0,0,1-.65-.37l1.09.85a3.45,3.45,0,0,1-.53-.55l.84,1.1a3.75,3.75,0,0,1-.37-.68l.54,1.29a3.76,3.76,0,0,1-.2-.73l.19,1.43a3,3,0,0,1,0-.73l-.2,1.44a3,3,0,0,1,.16-.53l-.55,1.29a3,3,0,0,1,.21-.35l-.84,1.09a2.72,2.72,0,0,1,.3-.29l-1.09.85a1.28,1.28,0,0,1,.25-.15,5.4,5.4,0,0,0-2.72-10.06c-9.54.48-19,1.42-28.5,2.69a5.33,5.33,0,0,0-3.23,2.48,5.64,5.64,0,0,0-.64,3.44,5.08,5.08,0,0,0,1.49,3.1,5.17,5.17,0,0,0,3.81,1.58,32.89,32.89,0,0,1,7.87.14l-1.43-.19a72.65,72.65,0,0,1,12.23,3c3.83,1.23,7.68,2.45,11.4,4l-1.29-.55a42.92,42.92,0,0,1,9.41,5.4l-1.09-.85a87.53,87.53,0,0,1,9.18,8.57L186.9,165l2.8,2.89c.87.91,1.81,1.78,2.61,2.76l-.85-1.1a4.54,4.54,0,0,1,.57.94l-.54-1.29a4,4,0,0,1,.16.59l-.19-1.44a3.86,3.86,0,0,1,0,.76l.19-1.44a4.2,4.2,0,0,1-.26.92l.54-1.29a4.91,4.91,0,0,1-.51.85l.85-1.09a5.86,5.86,0,0,1-1,1l1.09-.84A7.52,7.52,0,0,1,191,168l1.29-.54c-2.06.85-4.21,1.29-6.21,2.3a19,19,0,0,0-4.55,3.38c-2.51,2.43-4.43,5.41-6.56,8.17l.85-1.09a27.06,27.06,0,0,1-4.55,4.77l1.09-.84a25.46,25.46,0,0,1-5.41,3.1l1.29-.55a83.24,83.24,0,0,1-11,3.38,63.6,63.6,0,0,0-12.73,4.77c-1.12.58-2.22,1.2-3.29,1.87a29.42,29.42,0,0,1-3.12,1.93l1.29-.54a4.92,4.92,0,0,1-.85.26l1.44-.2a3.58,3.58,0,0,1-.65,0l1.43.19a3.55,3.55,0,0,1-.64-.17l1.29.55a4.61,4.61,0,0,1-.77-.46l1.09.85A30.63,30.63,0,0,1,136.9,194l.84,1.09a47.52,47.52,0,0,1-6.05-10.5l.54,1.29a63.48,63.48,0,0,1-4.19-16l.19,1.43a103.38,103.38,0,0,1-.82-13.28,97.58,97.58,0,0,1,.59-13.13l-.19,1.43a25.94,25.94,0,0,1,1.61-6.36l-.54,1.29a17.54,17.54,0,0,1,2.24-3.89l-.84,1.09A14.27,14.27,0,0,1,132.7,136l-1.09.84a11.77,11.77,0,0,1,2.42-1.43l-1.29.54.19-.08a5.9,5.9,0,0,0,3.22-2.48,5.38,5.38,0,0,0-1.93-7.38,5.22,5.22,0,0,0-4.16-.55Z"/></g><path class="cls-4" d="M125.49,125.48a20.79,20.79,0,0,0-8,7.62,28.4,28.4,0,0,0-3.55,11c-1.17,8.8.48,17.92,3,26.36a107.91,107.91,0,0,0,11.26,25.52,70.76,70.76,0,0,0,6.91,9.6,36.69,36.69,0,0,0,3.39,3.44,2.07,2.07,0,0,0,1.6.58c.33,0,.65,0,1-.06.81-.09,1.61-.21,2.41-.37a53.15,53.15,0,0,0,10.93-3.84,130.89,130.89,0,0,0,12.65-6.6,161.08,161.08,0,0,0,23.7-16.61,47.67,47.67,0,0,0,7.29-7.4,6.54,6.54,0,0,0,1.35-2.82,8,8,0,0,0-.56-4.3,33,33,0,0,0-4.31-7A143.74,143.74,0,0,0,181.34,145c-6.61-6.78-14-13.09-22.37-17.57-8.19-4.37-17.69-6.92-26.9-4.53a30.73,30.73,0,0,0-6.58,2.59c-1.53.81-.17,3.14,1.37,2.33a27.34,27.34,0,0,1,16-3,42.63,42.63,0,0,1,15.52,5.35,80.43,80.43,0,0,1,14.21,10.2,130.91,130.91,0,0,1,11.53,11.55q2.2,2.5,4.31,5.1c.6.73,1.18,1.47,1.76,2.21.06.08.12.15.17.23s-.07-.09-.07-.09l.12.14.37.49.67.89a46.43,46.43,0,0,1,4.38,6.49,6.11,6.11,0,0,1,.83,4.34,4.79,4.79,0,0,1-.81,1.4l-.16.21c-.18.25.12-.14,0,0s-.27.34-.41.5a65.73,65.73,0,0,1-10.15,9.36,171.45,171.45,0,0,1-14.52,10.14,151.44,151.44,0,0,1-15.76,8.75,72.22,72.22,0,0,1-6.92,2.9,36.05,36.05,0,0,1-6.05,1.64l-.34,0c-.32.06.18,0-.07,0l-.6.07c-.39,0-.78.05-1.17.05l1,.4a39.76,39.76,0,0,1-4.89-5.16l-.61-.78s-.16-.2,0,0l-.12-.15-.35-.46c-.42-.56-.83-1.12-1.23-1.7q-1.26-1.8-2.43-3.68a104.1,104.1,0,0,1-8.64-17.41,93.63,93.63,0,0,1-5.36-19.5,59.24,59.24,0,0,1-.68-9.15c0-1.47.1-2.94.26-4.4,0-.17,0-.35.07-.53s0-.26,0,0a2.51,2.51,0,0,0,0-.27c0-.34.11-.69.17-1,.12-.67.26-1.35.42-2a27.93,27.93,0,0,1,1.23-3.79c.1-.25,0-.07,0,0l.1-.22c.06-.15.13-.3.2-.44s.28-.58.42-.87c.3-.56.61-1.12,1-1.65.17-.27.34-.53.52-.79l.25-.33a1.33,1.33,0,0,1,.14-.19c.09-.13-.12.14,0-.06.4-.49.81-1,1.25-1.42a18.92,18.92,0,0,1,1.39-1.3l.38-.31s.2-.15,0,0l.2-.15c.26-.19.52-.38.8-.56.55-.37,1.13-.71,1.72-1,1.53-.82.17-3.15-1.37-2.33Z"/><path class="cls-4" d="M139.39,134.62a20.82,20.82,0,0,0-11.33,8.32,20.26,20.26,0,0,0-3,6.41,19.41,19.41,0,0,0-.44,6.71,75.27,75.27,0,0,0,8,26.78A65.35,65.35,0,0,0,140.48,195c.74.9,1.5,1.77,2.31,2.61a3.28,3.28,0,0,0,1.37,1,3.94,3.94,0,0,0,1.9.05,20.46,20.46,0,0,0,4.91-1.66c2.31-1,4.56-2.13,6.78-3.31,5.5-2.91,10.86-6.11,16.11-9.44A159.44,159.44,0,0,0,187.32,175a19,19,0,0,0,3.24-3,2.76,2.76,0,0,0,.75-1.71c0-.83-.78-1.66-1.23-2.31a148.43,148.43,0,0,0-10.89-14.08,85.74,85.74,0,0,0-16.6-15.18c-5.49-3.66-12.06-6.52-18.78-5.43a17.37,17.37,0,0,0-4.45,1.42,1.35,1.35,0,0,0-.48,1.84,1.37,1.37,0,0,0,1.84.49,6.42,6.42,0,0,1,.83-.35c.35-.13.7-.25,1-.35a14.61,14.61,0,0,1,2.18-.48c.22,0-.2,0,0,0l.25,0,.5-.05c.38,0,.76,0,1.14,0a17.43,17.43,0,0,1,2.17.12l.14,0,.21,0,.51.08c.37.07.74.14,1.1.23.76.18,1.52.4,2.26.65a27,27,0,0,1,4.19,1.82c6.28,3.29,11.56,8.08,16.44,13.2a136.09,136.09,0,0,1,12,14.52c.65.9,1.29,1.81,1.92,2.72.26.38.52.76.77,1.15a4.5,4.5,0,0,0,.31.45.87.87,0,0,0,.08.14c-.11,0-.15-.56-.15-.58,0,.25.08-.41,0-.19s.23-.34,0-.09a1.48,1.48,0,0,0-.13.21c-.18.31.24-.27,0,0a14.06,14.06,0,0,1-1.28,1.28c-.64.58-1.32,1.13-2,1.67l-.28.21c-.14.11.21-.16.06-.05l-.14.11-.67.51-1.36,1c-2.15,1.57-4.36,3.06-6.58,4.53q-7.64,5-15.6,9.53c-2.39,1.35-4.8,2.66-7.25,3.88-1,.51-2.09,1-3.14,1.49l-.72.31-.16.07.08,0-.36.14c-.43.18-.86.35-1.3.5a15.35,15.35,0,0,1-2.07.62l-.42.07c.41-.1.16,0-.07,0H145c-.3,0,.39.11,0,0s.25.14.09,0,.16.14.18.15-.26-.26-.32-.32c-.76-.79-1.49-1.6-2.2-2.44a51.41,51.41,0,0,1-3.93-5.35,76.28,76.28,0,0,1-10.47-25.55,59.56,59.56,0,0,1-1-5.91,19,19,0,0,1,.12-6,18.61,18.61,0,0,1,7-10.74,16.72,16.72,0,0,1,5.56-2.75,1.35,1.35,0,0,0-.72-2.61Z"/><path class="cls-4" d="M117.89,133.33,103.66,111.5l-.49,1.84c4.66-2.36,9.22-4.91,13.83-7.37,2.24-1.2,4.49-2.38,6.78-3.49l1.49-.72a7.34,7.34,0,0,0,.85-.39c.62-.4-.72-.08-.88-.18-.44-.26-.22-.19-.11,0l.25.29.12.15c.17.21-.17-.22,0,0s.24.33.37.49l.88,1.22c.78,1.1,1.54,2.2,2.3,3.3,1.93,2.79,3.84,5.59,5.76,8.38s4,5.85,6.14,8.69a1.39,1.39,0,0,0,1.84.49,1.37,1.37,0,0,0,.49-1.85c-4.05-5.44-7.79-11.12-11.64-16.7-1.38-2-2.73-4-4.24-5.93a3.58,3.58,0,0,0-.44-.51,1.67,1.67,0,0,0-2.06-.13c-2.34,1.07-4.64,2.23-6.92,3.42-5.4,2.83-10.7,5.84-16.14,8.6a1.36,1.36,0,0,0-.48,1.85l14.23,21.83c.94,1.45,3.28.1,2.33-1.36Z"/><path class="cls-4" d="M100.93,111.76c-1,1.14-2.22,2.29-2.08,3.94a5.65,5.65,0,0,0,.88,2.47c.84,1.4,1.8,2.75,2.73,4.1,2.84,4.12,5.72,8.2,8.42,12.41a51.42,51.42,0,0,1,3.39,5.83,1.37,1.37,0,0,0,1.85.49,1.39,1.39,0,0,0,.48-1.85,82.28,82.28,0,0,0-6.78-10.94c-2.39-3.51-4.88-7-7.19-10.5a14.22,14.22,0,0,1-.88-1.44,1,1,0,0,1,0-.1c.1.24-.1-.31-.1-.31s-.1-.5-.08-.32c0-.17,0-.2,0-.08a2.68,2.68,0,0,1,.07-.27c-.06.17,0,0,0-.06a2.29,2.29,0,0,1,.26-.38c.3-.37.63-.72,1-1.08a1.38,1.38,0,0,0,0-1.91,1.36,1.36,0,0,0-1.91,0Z"/><path class="cls-4" d="M127.08,114.16l-.29-.14s-.23-.17-.06,0,0,0,0,0-.15-.16-.22-.23.14.22.06.08a1.63,1.63,0,0,0-.11-.17.91.91,0,0,0-.07-.14c-.09-.16,0,0,0,.1a2.63,2.63,0,0,0-.09-.3l0-.16c.09.32,0,.2,0,.08a2.17,2.17,0,0,1,0-.36l-1.71,1.3A4.2,4.2,0,0,0,127,114c.31-.1.61-.23.92-.34l.46-.17c.06,0,.31-.13.38-.1s-.36,0-.16,0H129c.16,0,.21.09-.08,0,.1,0,.22,0,.33.08l.13,0c-.27,0-.23-.11-.11,0s.37.23.16.08.22.28,0,0c-.08-.11-.09-.12,0,0l0,0s-.12-.38-.07-.14,0-.37,0-.16-.05.31,0-.11l.94-.94a11.07,11.07,0,0,0-3.78,2.21,1.35,1.35,0,0,0,0,1.9,1.37,1.37,0,0,0,1.91,0l.32-.27c.16-.13.11,0,0,0,0,0,.11-.08.16-.11a7.43,7.43,0,0,1,.75-.49,7.88,7.88,0,0,1,.76-.4l.17-.08c.16-.07-.25.1,0,0l.45-.17a1.35,1.35,0,0,0,.94-.94,2.38,2.38,0,0,0-.72-2.31,3.71,3.71,0,0,0-2.18-.86,4.75,4.75,0,0,0-2.1.44,8.6,8.6,0,0,1-1,.35l-.28.07c-.29.06.3,0,0,0a1.21,1.21,0,0,1-.27,0l.17,0-.18,0a1.37,1.37,0,0,0-1.18.24,1.41,1.41,0,0,0-.53,1.06,3.68,3.68,0,0,0,2.08,3.62,1.5,1.5,0,0,0,1,.14,1.38,1.38,0,0,0,.8-.62,1.36,1.36,0,0,0-.48-1.85Z"/><path class="cls-4" d="M111.32,120.1a2.82,2.82,0,0,0,.89,2.25,3.8,3.8,0,0,0,2.29,1c1.7.16,3.16-1,4.37-2a1.3,1.3,0,0,0,.35-1.31,3.27,3.27,0,0,0-3-2.25,3.2,3.2,0,0,0-3.11,1.64,1.45,1.45,0,0,0-.14,1,1.35,1.35,0,0,0,2.47.33c0-.09.09-.16.13-.24s-.11.16-.11.15.07-.09.09-.1l.09-.09s-.33.22-.12.1l.2-.11c.17-.11-.27.09-.15.06l.12,0,.26-.07-.2,0a.66.66,0,0,0,.14,0h.38c.16,0-.37-.06-.17,0l.26.07.1,0c.21.07-.26-.12-.14-.06l.23.13.11.07s-.28-.24-.16-.11.19.15.18.19-.21-.34-.1-.13a.75.75,0,0,0,.07.12c.08.14-.08-.16-.07-.18a.49.49,0,0,0,.05.16l.34-1.32-.33.28c-.07.06-.25.27-.34.28l.1-.08-.1.08-.14.1c-.12.08-.24.16-.37.23a2.71,2.71,0,0,1-.37.21l-.12,0,.13,0a1,1,0,0,0-.16,0,3.11,3.11,0,0,1-.41.11c-.28.06.28,0,0,0a1.08,1.08,0,0,0-.18,0,.47.47,0,0,1-.17,0s.35.06.12,0l-.34-.1c-.14,0,.31.16.09,0l-.15-.08-.15-.1c-.18-.11.18.18.09.07l-.13-.12s-.17-.2,0,0,0-.11-.09-.17.1.32.05.11c0-.06,0-.25,0,0s0,0,0,0a1.23,1.23,0,0,1,0-.2,1.39,1.39,0,0,0-.4-1,1.36,1.36,0,0,0-1-.39,1.38,1.38,0,0,0-1,.39,1.58,1.58,0,0,0-.39,1Z"/></g></svg>