<svg xmlns="http://www.w3.org/2000/svg" viewBox="0 0 300 300"><defs><style>.cls-1{opacity:0.34;}.cls-2{fill:#39b54a;}.cls-3{fill:#00a79d;}.cls-4{fill:#58595b;}</style></defs><title>studio2_illu</title><g id="outline"><g class="cls-1"><path class="cls-2" d="M114.85,110.07a53.34,53.34,0,0,1,9.71-5.55l-3.87,1.64a52.19,52.19,0,0,1,12.55-3.52L112.74,87l-.08.76.57-4.31-.22.72,1.63-3.87c-1.16,2.27,2.12-2,1-1.09-.52.39-1,.91-1.48,1.33-1.33,1.14-2.7,2.24-4.05,3.36L102,90.64l-16.2,13.42c-5.26,4.36-6.14,14-2.53,19.62a19.36,19.36,0,0,0,5.81,5.8c3,2,9,3.07,12.47,1.64,27.15-11.21,53.84-23.43,79.92-36.93L161.83,68.76a75.71,75.71,0,0,1-5.41,5.34c-.94.84-1.91,1.66-2.89,2.47-.49.4-1,.8-1.48,1.19q-2,1.58,1-.78a70.27,70.27,0,0,0-6.17,4.49l-5.44,3.83q-13.31,9.4-26.11,19.47C100,116.86,85.58,130.16,73.48,145.53c-2.64,3.35-4.94,6.91-4.74,11.44a16.74,16.74,0,0,0,3.47,9.81c4.74,6.13,14,8.54,20.89,4.17,33.22-21.22,68.58-39,103.26-57.7,9-4.87,18.08-9.77,27-14.81L203.78,73c-8.15,9.76-16.64,19.5-25.71,28.41-.71.69-1.46,1.33-2.16,2-.41.4-1.51,1.19.76-.57,2.48-1.91.61-.46,0,0q-2.16,1.65-4.35,3.25-7.19,5.24-14.63,10.08c-9.93,6.5-20.14,12.56-30.38,18.55-11.68,6.82-23.41,13.56-34.91,20.69-7.19,4.47-10.63,14.67-5.8,22.15,5.06,7.86,14,9.74,22.14,5.81q23.93-11.5,48.37-21.85l-3.87,1.63q13.42-5.66,27-11l-20.49-15.61-.06.82.58-4.3a7,7,0,0,1-.44,1.57l1.63-3.87a9.83,9.83,0,0,1-.78,1.47q2.59-3.17,1-1.26c-.64.62-1.24,1.28-1.87,1.9-1.43,1.4-2.88,2.76-4.35,4.1s-2.74,2.43-4.15,3.6c-.61.51-1.23,1-1.85,1.51-2.16,1.78,3.53-2.64.26-.21a116.75,116.75,0,0,1-15,9.36c-11.78,6.27-23.88,11.75-35.23,18.83-7.18,4.48-10.64,14.65-5.81,22.15s14.33,10.39,22.15,5.81A204,204,0,0,1,139.34,186l-3.87,1.63c10.41-4.36,21.21-7.75,31.73-11.83,15.4-6,30.64-12.33,46-18.51l-19.91-19.92c-.21.56-.43,1.1-.67,1.65l1.63-3.87a50.16,50.16,0,0,1-2.82,5.51c-.61,1-1.26,2-1.93,3s-2.75,2.84.41-.42c-2.91,3-5.46,6.25-8.57,9.09-1.49,1.35-3,2.67-4.58,3.94-1,.8-4.1,2.53-.22.24a28.73,28.73,0,0,0-2.37,1.78c-3.73,2.75-7.57,5.32-11.47,7.81-15.91,10.13-32.39,19.47-48.8,28.79l16.35,28a237.8,237.8,0,0,1,24.68-12.23L151,212.23a236.06,236.06,0,0,1,30.72-10.48l-20.49-15.61-.08.78.58-4.3-.21.74,1.63-3.87c-.15.35-.36.7-.5,1-.66,1.71,2.5-2.58,1.05-1.39-.64.52-1.22,1.11-1.85,1.64-2.25,1.87,3.3-2.48,1.46-1.12l-1.43,1.05c-2.15,1.58-4.36,3.1-6.58,4.58-5.16,3.43-10.42,6.7-15.72,9.92-11.52,7-23.22,13.67-34.92,20.34-5.19,2.95-10.38,5.89-15.54,8.89l16.34,28c7.37-5.23,15.66-9.27,23.73-13.26,11.26-5.56,22.72-10.72,34.28-15.61l-3.86,1.63c8.55-3.6,17.17-7.06,25.92-10.18a126,126,0,0,1,18.89-5.62l-19.91-19.92a1.14,1.14,0,0,1-.08.33l1.63-3.87c-.68,1.52-1.76.79,1.91-2.31-.23.19-.39.46-.62.66s-.75.64-1.1,1c-1.57,1.44,3.79-2.76,1.92-1.47-2.05,1.4-4.08,2.81-6.2,4.12-4.38,2.73-8.88,5.24-13.29,7.92a47.51,47.51,0,0,0-6.68,4.78c-1.51,1.32-3,2.67-4.53,4-.75.62-1.5,1.24-2.27,1.85-.5.4-1,.81-1.53,1.21q3-2.31,1-.76c-7.34,5.42-15,10.35-22.71,15.23-7.14,4.53-10.66,14.62-5.8,22.15,4.64,7.2,14.46,10.61,22.15,5.81A84.15,84.15,0,0,1,159.9,244L156,245.61A83.26,83.26,0,0,1,176.76,240l-4.3.58a46.46,46.46,0,0,1,6.35-.5l-4.31-.58.68.28-9.68-7.44.32.48-2.21-8.17,0,.57.58-4.3-.19.61,1.63-3.87c2-2.37,2.38-2.84,1.11-1.41l-1,1.09c-.67.72-1.35,1.44-2,2.15q-2.22,2.33-4.5,4.59-4.56,4.53-9.37,8.79c-5.12,4.57-6.24,13.87-2.53,19.62a19.39,19.39,0,0,0,5.81,5.81c3.15,2,8.9,3,12.47,1.63a94.83,94.83,0,0,1,20.5-5.18l-4.31.57c3-.38,6-.62,9-.73,8.46-.3,16.59-7.23,16.19-16.19-.38-8.51-7.12-16.51-16.19-16.18A107.47,107.47,0,0,0,157,228.73l15.75,27.05Q180.69,248.71,188,241c4.38-4.67,8.14-9.53,8-16.3-.2-10.59-9.73-17.63-19.81-16.83a97.9,97.9,0,0,0-44.24,14.23l16.35,28c8.25-5.23,16.48-10.48,24.25-16.41,2.65-2,5.29-4.06,7.84-6.19,1-.83,2-1.68,3-2.54,1.77-1.58,3.67-2.23-1.39.86,1.5-.91,3-1.92,4.46-2.82,4.79-2.85,9.65-5.58,14.33-8.62,5.84-3.78,13.63-8.79,15-16.25,1.08-5.82.18-11.4-4.16-15.75s-9.94-5.26-15.75-4.16c-13.45,2.53-26.58,8.28-39.17,13.45-17,7-33.86,14.39-50.2,22.82a142.88,142.88,0,0,0-17.33,10c-3.51,2.5-6.26,5.39-7.44,9.68a16.56,16.56,0,0,0,1.64,12.47c4.75,7.38,14.31,10.37,22.14,5.81,22.57-13.14,45.78-25.38,67.45-40,2.48-1.68,4.93-3.4,7.32-5.22a48,48,0,0,0,6.91-5.73c4.08-4.57,5.81-9.21,6.47-15.31.53-4.92-2.71-9.88-6.38-12.71a15.93,15.93,0,0,0-14.11-2.9,249.66,249.66,0,0,0-59.29,24.35c-7.36,4.19-10.5,14.85-5.8,22.15s14.26,10.28,22.15,5.8c17.39-9.87,35-19.7,51.7-30.67a161.66,161.66,0,0,0,24.56-19.1,76.35,76.35,0,0,0,18-27.06c2-5.22-.41-12-4.17-15.75s-10.56-6.26-15.75-4.16c-16,6.46-31.92,13.17-48,19.32-12.11,4.61-24.42,8.59-36.27,13.86a208,208,0,0,0-20.77,10.86l16.34,28c12.18-7.6,25.28-13.26,37.8-20.23a136.19,136.19,0,0,0,19.3-13.31c3.14-2.54,6.14-5.24,9-8.05a48.5,48.5,0,0,0,6.19-7.16c2.68-3.85,3.61-8.13,4-12.73.75-9.79-11.07-19.3-20.49-15.61q-40.23,15.75-79.23,34.45l16.34,28c20.6-12.79,42-24.25,62.39-37.36,5.12-3.29,10.18-6.69,15.13-10.23a144.42,144.42,0,0,0,13.24-10.09c4.83-4.4,9.16-9.41,13.53-14.26,4.62-5.12,9.24-10.27,13.66-15.56,5.22-6.26,6.48-14.51,1.27-21.26a16.25,16.25,0,0,0-20.89-4.17c-34.37,19.36-69.66,37-103.89,56.65-8.91,5.11-17.75,10.34-26.4,15.86l19.61,25.43c12.11-15.37,26.54-28.67,41.87-40.76.85-.67,4.56-3.37.46-.38,1-.74,2-1.54,3-2.3,1.76-1.34,3.54-2.66,5.32-4q6.11-4.5,12.3-8.85c8.88-6.24,18-12.47,25.38-20.5,5.48-6,6.31-14.73,1.26-21.26s-13.62-7.92-20.88-4.17Q131.53,83.6,96.69,98.34l3.87-1.63L92.91,99.9,108.66,127l18.64-15.43,8.91-7.38A26,26,0,0,0,141.82,98c2.3-3.65,2.81-6.74,3.3-11,.58-4.9-2.73-9.89-6.38-12.71-4.39-3.39-8.78-3.7-14.11-2.9A61.05,61.05,0,0,0,98.51,82.11c-3.51,2.53-6.25,5.37-7.44,9.68a16.56,16.56,0,0,0,1.64,12.47c4.38,6.8,14.8,11.1,22.14,5.81Z"/></g><g class="cls-1"><path class="cls-3" d="M106.68,72.56c15.54-2.36,31.67-3.09,47.53-3.32,8.14-.12,16.29-.09,24.43,0,7.86,0,15.74,0,23.56,1,4,.51,7.47-3.46,8-7a8.08,8.08,0,0,0-5.8-8.88c-29.53-7.85-60.36-8.41-90.67-6.17l7.81,5.94-.1-.59v4.31c-.29,1.8-1.31,1.93-2.26,2.81-.7.64,1-.14-.1.06,1.72-.31,3.52-.4,5.25-.57,3.51-.36,7-.68,10.52-1q10.8-.87,21.62-1.23,21.39-.74,42.77.48c4.23.24,8.28-3.89,8.09-8.09a8.27,8.27,0,0,0-8.09-8.09A474.93,474.93,0,0,0,149.56,42q-12.13.59-24.23,1.8c-4.46.45-9.32.43-13.42,2.39-5,2.38-6.88,6.88-6,12.2.52,3.25,4.57,6.18,7.8,5.94,29.09-2.15,58.27-1.88,86.37,5.59L202.2,54c-8-1-16-1-24.09-1-8.32,0-16.64-.07-25,.06A378.44,378.44,0,0,0,102.37,57c-4.32.66-6.71,6.1-5.65,10,1.27,4.63,5.62,6.31,10,5.65Z"/></g><g class="cls-1"><path class="cls-3" d="M104,48.37a48.41,48.41,0,0,1,9.65-2.52c3.81-.49,7.67-.59,11.51-.71,8.71-.26,17.42-.49,26.13-.48,17.13,0,33.63,1.11,50.08,5.44,4.09,1.08,9-1.36,10-5.65a8.24,8.24,0,0,0-5.66-10c-18-4.75-36.81-6-55.41-6-9,0-18,.22-27,.53-9.51.33-18.68,1.43-27.41,5.38-4,1.81-5,7.59-2.91,11.08,2.4,4.1,7.08,4.71,11.08,2.9Z"/></g><g class="cls-1"><path class="cls-3" d="M184.07,246.83c-1,1.65,1-.64-.41.61-.16.15-1.59,1.29-.74.71s-.78.37-.94.48c-1.6,1,1.17-.23-.69.3-1.19.35-2.35.7-3.56.95-.62.12-1.23.22-1.85.32-.95.15,1.12-.09-.44,0-6.57.53-13.15,1-19.74,1.1-12.83.23-25.56-.72-36.78-5.82-4-1.81-8.71-1.14-11.07,2.9-2,3.48-1.1,9.26,2.9,11.08,14.78,6.71,30.76,8.43,46.85,8a183.26,183.26,0,0,0,22.58-1.67c7.21-1.09,14-4.4,17.86-10.81a8.09,8.09,0,1,0-14-8.17Z"/></g><path class="cls-4" d="M94.06,45c.21,9.8.69,19.58,1.22,29.36C96,87,96.77,99.66,97.63,112.29q1.43,20.92,3.07,41.86,1.56,20.17,3.29,40.34,1.47,17.14,3.12,34.29c.74,7.62,1.48,15.24,2.44,22.84.26,2,.49,4,.89,6a5.13,5.13,0,0,0,.43,1.43,8.09,8.09,0,0,0,1.8,1.8,41.1,41.1,0,0,0,4,3.09c11.56,7.87,26.64,10.14,40.36,9.48a76.66,76.66,0,0,0,20.31-3.58c5.29-1.75,10.6-4.23,14.68-8.12,1.49-1.42,2.71-2.76,3.12-4.75.36-1.79.59-3.6.83-5.4.83-6.34,1.45-12.7,2.07-19.05.91-9.32,1.74-18.65,2.55-28q1.44-16.69,2.78-33.38,1.41-17.61,2.77-35.24,1.29-16.78,2.52-33.58,1-14.2,2-28.4c.45-6.55.9-13.11,1.3-19.68.11-1.81.22-3.63.3-5.45a5.31,5.31,0,0,0-.15-2.66c-.33-.56-1-.7-1.59-.9-.74-.26-1.49-.5-2.24-.74-1.52-.49-3.06-.93-4.61-1.35-3.36-.9-6.76-1.66-10.18-2.33a225.47,225.47,0,0,0-23.85-3.24,233.59,233.59,0,0,0-52.26,1.05,125.64,125.64,0,0,0-22.34,5.06c-1.63.55-.93,3.16.72,2.6,15.58-5.22,32.34-6.74,48.68-6.94a237.21,237.21,0,0,1,49.39,4.28c3.29.66,6.57,1.42,9.81,2.31,1.52.42,3,.87,4.55,1.36.59.19,1.2.48,1.81.61.89.2-.16-.19-.35-.72.05.15,0-.41,0-.31a2.68,2.68,0,0,0,0,.8c0,.55,0,1.11-.07,1.66-.24,4.88-.58,9.76-.9,14.64q-.83,12.32-1.72,24.63-1.11,15.64-2.29,31.26-1.3,17.29-2.66,34.59-1.35,17.15-2.77,34.29-1.29,15.36-2.66,30.7c-.72,7.93-1.46,15.85-2.32,23.76-.3,2.71-.6,5.43-.95,8.13,0,.17-.13,1-.07.52,0,.27-.07.53-.11.79-.07.46-.13.93-.2,1.39-.11.71-.23,1.42-.37,2.13-.08.42-.24.84-.31,1.26s.16-.24.06-.13a3.21,3.21,0,0,0-.21.3,22,22,0,0,1-2.23,2.43c-4,3.68-9.21,5.95-14.34,7.54a77.89,77.89,0,0,1-41,1.08,49.4,49.4,0,0,1-18-8.16c-1.22-.93-2.27-2-3.43-3,0,0,.29.38.15.16.23.36.09.32,0,.11-.1-.51-.23-1-.32-1.51-.16-.87-.28-1.74-.41-2.61,0-.13,0-.27,0-.4s-.08-.58,0-.14l-.12-.92c-.09-.66-.17-1.33-.25-2-.42-3.39-.78-6.79-1.14-10.19-1-9.9-2-19.81-2.86-29.73q-1.71-18.93-3.23-37.88-1.68-20.62-3.19-41.28-1.45-20-2.71-40C98.26,80,97.63,68.79,97.17,57.59,97,53.4,96.85,49.22,96.76,45a1.35,1.35,0,0,0-2.7,0Z"/><path class="cls-4" d="M97.67,74.17c7.18-1,14.48-1.4,21.71-1.94s14.44-1,21.67-1.39a332.09,332.09,0,0,1,43.37.31,201.36,201.36,0,0,1,24,3.38,1.39,1.39,0,0,0,1.66-.94,1.37,1.37,0,0,0-.95-1.66,229.23,229.23,0,0,0-43.5-4.32c-14.64-.17-29.27.67-43.87,1.75-4,.29-8.07.61-12.11.93-4.23.33-8.45.67-12.65,1.27A1.36,1.36,0,0,0,96,73.22a1.39,1.39,0,0,0,1.66,1Z"/><path class="cls-4" d="M96.84,40.81a6.55,6.55,0,0,1-.52-3.42l.06-.82c0-.14,0-.27.05-.4,0-.4-.05.26,0-.1s.06-.43.11-.65l-1,.95a210.54,210.54,0,0,1,41.79-6.82,207,207,0,0,1,45.72,2.19A201.1,201.1,0,0,1,209.83,38l-1-.94a14.72,14.72,0,0,1,.31,2.14,17.2,17.2,0,0,1,.05,2,5.93,5.93,0,0,1-.27,1.62l1.52-.62a117.9,117.9,0,0,0-19.62-5.36,201.8,201.8,0,0,0-23.24-3,244.42,244.42,0,0,0-24.51-.57A223.33,223.33,0,0,0,119,35.15a149.55,149.55,0,0,0-21.27,4.31c-.81.23-1.62.48-2.42.73-1.65.51-.95,3.12.72,2.6a139.19,139.19,0,0,1,20.8-4.63,212.84,212.84,0,0,1,23.38-2.11q12.17-.46,24.35.27A205.81,205.81,0,0,1,187.66,39a127.23,127.23,0,0,1,20,5c.72.25,1.43.52,2.14.79a1.36,1.36,0,0,0,1.53-.62c1-2.41.71-5.36.19-7.88a1.36,1.36,0,0,0-1-.94A203.53,203.53,0,0,0,163,26.83,214,214,0,0,0,118,28.92a211.7,211.7,0,0,0-23.11,4.85,1.33,1.33,0,0,0-1,.94c-.47,2.37-.67,5.29.57,7.46a1.35,1.35,0,0,0,2.33-1.36Z"/><path class="cls-4" d="M109.15,243.81c4,3.87,9.2,6.28,14.41,8a87.59,87.59,0,0,0,19.64,3.73,120.56,120.56,0,0,0,20.9,0A89.54,89.54,0,0,0,183,252c4.57-1.42,9.4-3.36,12.88-6.77a12.38,12.38,0,0,0,.93-1,1.4,1.4,0,0,0,0-1.91,1.36,1.36,0,0,0-1.91,0,14.18,14.18,0,0,1-2,1.95l-.29.23-.1.08-.63.44c-.44.31-.9.6-1.36.87a33.81,33.81,0,0,1-3.11,1.6l-.42.19-.22.09-.88.36c-.61.24-1.23.47-1.85.68a66.28,66.28,0,0,1-8.31,2.27,92.5,92.5,0,0,1-9.26,1.45,120,120,0,0,1-20.5.46,89.56,89.56,0,0,1-19.27-3.11c-1.44-.41-2.87-.87-4.27-1.38a38.54,38.54,0,0,1-3.71-1.56,34.65,34.65,0,0,1-3.49-1.89c-.53-.33-1.06-.68-1.57-1l-.74-.55-.13-.1-.39-.32c-.45-.38-.88-.77-1.3-1.18-1.24-1.21-3.15.7-1.91,1.91Z"/></g></svg>